<mxfile host="app.diagrams.net" agent="Mozilla/5.0 (Windows NT 10.0; Win64; x64) AppleWebKit/537.36 (KHTML, like Gecko) Chrome/131.0.0.0 Safari/537.36" version="25.0.1">
  <diagram name="Page-1" id="hrYcZwWIBYPTDbqtZU0t">
    <mxGraphModel dx="1186" dy="1920" grid="1" gridSize="10" guides="1" tooltips="1" connect="1" arrows="1" fold="1" page="1" pageScale="1" pageWidth="827" pageHeight="1169" math="0" shadow="0">
      <root>
        <mxCell id="0" />
        <mxCell id="1" parent="0" />
        <mxCell id="tQLCBiAYzLLkOMKWZQ0E-1" value="" style="rounded=0;whiteSpace=wrap;html=1;fillColor=none;" vertex="1" parent="1">
          <mxGeometry x="330" y="-260" width="430" height="1000" as="geometry" />
        </mxCell>
        <mxCell id="tQLCBiAYzLLkOMKWZQ0E-2" value="Company" style="shape=umlActor;verticalLabelPosition=bottom;verticalAlign=top;html=1;" vertex="1" parent="1">
          <mxGeometry x="120" y="200" width="40" height="80" as="geometry" />
        </mxCell>
        <mxCell id="tQLCBiAYzLLkOMKWZQ0E-3" value="Login" style="ellipse;whiteSpace=wrap;html=1;" vertex="1" parent="1">
          <mxGeometry x="360" y="-120" width="80" height="40" as="geometry" />
        </mxCell>
        <mxCell id="tQLCBiAYzLLkOMKWZQ0E-4" value="" style="endArrow=none;html=1;rounded=0;entryX=0;entryY=1;entryDx=0;entryDy=0;" edge="1" parent="1" target="tQLCBiAYzLLkOMKWZQ0E-3">
          <mxGeometry width="50" height="50" relative="1" as="geometry">
            <mxPoint x="170" y="180" as="sourcePoint" />
            <mxPoint x="390" y="180" as="targetPoint" />
          </mxGeometry>
        </mxCell>
        <mxCell id="tQLCBiAYzLLkOMKWZQ0E-5" value="&amp;lt;&amp;lt;initiate&amp;gt;&amp;gt;" style="edgeLabel;html=1;align=center;verticalAlign=middle;resizable=0;points=[];fontColor=default;" vertex="1" connectable="0" parent="tQLCBiAYzLLkOMKWZQ0E-4">
          <mxGeometry x="0.2323" y="1" relative="1" as="geometry">
            <mxPoint x="-13" y="8" as="offset" />
          </mxGeometry>
        </mxCell>
        <mxCell id="tQLCBiAYzLLkOMKWZQ0E-6" value="Complete information" style="ellipse;whiteSpace=wrap;html=1;" vertex="1" parent="1">
          <mxGeometry x="360" y="-40" width="80" height="40" as="geometry" />
        </mxCell>
        <mxCell id="tQLCBiAYzLLkOMKWZQ0E-7" value="View applications" style="ellipse;whiteSpace=wrap;html=1;" vertex="1" parent="1">
          <mxGeometry x="360" y="200" width="80" height="40" as="geometry" />
        </mxCell>
        <mxCell id="tQLCBiAYzLLkOMKWZQ0E-8" value="&amp;lt;&amp;lt;include&amp;gt;&amp;gt;" style="endArrow=open;endSize=12;dashed=1;html=1;rounded=0;exitX=1;exitY=0.5;exitDx=0;exitDy=0;entryX=1;entryY=1;entryDx=0;entryDy=0;" edge="1" parent="1" source="tQLCBiAYzLLkOMKWZQ0E-6" target="tQLCBiAYzLLkOMKWZQ0E-3">
          <mxGeometry width="160" relative="1" as="geometry">
            <mxPoint x="350" y="40" as="sourcePoint" />
            <mxPoint x="560" y="-80" as="targetPoint" />
            <Array as="points">
              <mxPoint x="480" y="-20" />
              <mxPoint x="480" y="-86" />
            </Array>
          </mxGeometry>
        </mxCell>
        <mxCell id="tQLCBiAYzLLkOMKWZQ0E-9" value="View student details" style="ellipse;whiteSpace=wrap;html=1;" vertex="1" parent="1">
          <mxGeometry x="360" y="280" width="80" height="40" as="geometry" />
        </mxCell>
        <mxCell id="tQLCBiAYzLLkOMKWZQ0E-10" value="&amp;lt;&amp;lt;include&amp;gt;&amp;gt;" style="endArrow=open;endSize=12;dashed=1;html=1;rounded=0;exitX=1;exitY=0.5;exitDx=0;exitDy=0;entryX=1;entryY=0.5;entryDx=0;entryDy=0;" edge="1" parent="1" source="tQLCBiAYzLLkOMKWZQ0E-7" target="tQLCBiAYzLLkOMKWZQ0E-3">
          <mxGeometry width="160" relative="1" as="geometry">
            <mxPoint x="520" y="190" as="sourcePoint" />
            <mxPoint x="520" y="150" as="targetPoint" />
            <Array as="points">
              <mxPoint x="600" y="220" />
              <mxPoint x="600" y="-100" />
            </Array>
          </mxGeometry>
        </mxCell>
        <mxCell id="tQLCBiAYzLLkOMKWZQ0E-11" value="&amp;lt;&amp;lt;include&amp;gt;&amp;gt;" style="endArrow=open;endSize=12;dashed=1;html=1;rounded=0;exitX=1;exitY=0.5;exitDx=0;exitDy=0;entryX=1;entryY=1;entryDx=0;entryDy=0;" edge="1" parent="1" target="tQLCBiAYzLLkOMKWZQ0E-7">
          <mxGeometry width="160" relative="1" as="geometry">
            <mxPoint x="442" y="296" as="sourcePoint" />
            <mxPoint x="430" y="230" as="targetPoint" />
            <Array as="points">
              <mxPoint x="472" y="296" />
              <mxPoint x="472" y="234" />
            </Array>
          </mxGeometry>
        </mxCell>
        <mxCell id="tQLCBiAYzLLkOMKWZQ0E-12" value="Reject application" style="ellipse;whiteSpace=wrap;html=1;" vertex="1" parent="1">
          <mxGeometry x="360" y="360" width="80" height="40" as="geometry" />
        </mxCell>
        <mxCell id="tQLCBiAYzLLkOMKWZQ0E-13" value="Send meeting propose" style="ellipse;whiteSpace=wrap;html=1;" vertex="1" parent="1">
          <mxGeometry x="360" y="440" width="80" height="40" as="geometry" />
        </mxCell>
        <mxCell id="tQLCBiAYzLLkOMKWZQ0E-14" value="&amp;lt;&amp;lt;include&amp;gt;&amp;gt;" style="endArrow=open;endSize=12;dashed=1;html=1;rounded=0;exitX=1;exitY=0.5;exitDx=0;exitDy=0;entryX=1;entryY=1;entryDx=0;entryDy=0;" edge="1" parent="1" target="tQLCBiAYzLLkOMKWZQ0E-9">
          <mxGeometry width="160" relative="1" as="geometry">
            <mxPoint x="444" y="382" as="sourcePoint" />
            <mxPoint x="430" y="320" as="targetPoint" />
            <Array as="points">
              <mxPoint x="474" y="382" />
              <mxPoint x="474" y="314" />
            </Array>
          </mxGeometry>
        </mxCell>
        <mxCell id="tQLCBiAYzLLkOMKWZQ0E-15" value="" style="endArrow=none;html=1;rounded=0;entryX=0;entryY=0.5;entryDx=0;entryDy=0;" edge="1" parent="1" target="tQLCBiAYzLLkOMKWZQ0E-6">
          <mxGeometry width="50" height="50" relative="1" as="geometry">
            <mxPoint x="170" y="190" as="sourcePoint" />
            <mxPoint x="382" y="84" as="targetPoint" />
          </mxGeometry>
        </mxCell>
        <mxCell id="tQLCBiAYzLLkOMKWZQ0E-16" value="&amp;lt;&amp;lt;initiate&amp;gt;&amp;gt;" style="edgeLabel;html=1;align=center;verticalAlign=middle;resizable=0;points=[];fontColor=default;" vertex="1" connectable="0" parent="tQLCBiAYzLLkOMKWZQ0E-15">
          <mxGeometry x="0.0775" relative="1" as="geometry">
            <mxPoint as="offset" />
          </mxGeometry>
        </mxCell>
        <mxCell id="tQLCBiAYzLLkOMKWZQ0E-17" value="" style="endArrow=none;html=1;rounded=0;entryX=0;entryY=0.5;entryDx=0;entryDy=0;" edge="1" parent="1" target="tQLCBiAYzLLkOMKWZQ0E-7">
          <mxGeometry width="50" height="50" relative="1" as="geometry">
            <mxPoint x="170" y="220" as="sourcePoint" />
            <mxPoint x="392" y="94" as="targetPoint" />
          </mxGeometry>
        </mxCell>
        <mxCell id="tQLCBiAYzLLkOMKWZQ0E-18" value="&amp;lt;&amp;lt;initiate&amp;gt;&amp;gt;" style="edgeLabel;html=1;align=center;verticalAlign=middle;resizable=0;points=[];fontColor=default;" vertex="1" connectable="0" parent="tQLCBiAYzLLkOMKWZQ0E-17">
          <mxGeometry x="0.0611" y="-3" relative="1" as="geometry">
            <mxPoint as="offset" />
          </mxGeometry>
        </mxCell>
        <mxCell id="tQLCBiAYzLLkOMKWZQ0E-19" value="" style="endArrow=none;html=1;rounded=0;entryX=0;entryY=0;entryDx=0;entryDy=0;" edge="1" parent="1" target="tQLCBiAYzLLkOMKWZQ0E-9">
          <mxGeometry width="50" height="50" relative="1" as="geometry">
            <mxPoint x="170" y="230" as="sourcePoint" />
            <mxPoint x="402" y="104" as="targetPoint" />
          </mxGeometry>
        </mxCell>
        <mxCell id="tQLCBiAYzLLkOMKWZQ0E-20" value="&amp;lt;&amp;lt;initiate&amp;gt;&amp;gt;" style="edgeLabel;html=1;align=center;verticalAlign=middle;resizable=0;points=[];fontColor=none;noLabel=1;" vertex="1" connectable="0" parent="tQLCBiAYzLLkOMKWZQ0E-19">
          <mxGeometry x="0.0881" y="2" relative="1" as="geometry">
            <mxPoint as="offset" />
          </mxGeometry>
        </mxCell>
        <mxCell id="tQLCBiAYzLLkOMKWZQ0E-21" value="" style="endArrow=none;html=1;rounded=0;entryX=0;entryY=0;entryDx=0;entryDy=0;" edge="1" parent="1" target="tQLCBiAYzLLkOMKWZQ0E-12">
          <mxGeometry width="50" height="50" relative="1" as="geometry">
            <mxPoint x="170" y="240" as="sourcePoint" />
            <mxPoint x="412" y="114" as="targetPoint" />
          </mxGeometry>
        </mxCell>
        <mxCell id="tQLCBiAYzLLkOMKWZQ0E-22" value="&amp;lt;&amp;lt;initiate&amp;gt;&amp;gt;" style="edgeLabel;html=1;align=center;verticalAlign=middle;resizable=0;points=[];fontColor=default;" vertex="1" connectable="0" parent="tQLCBiAYzLLkOMKWZQ0E-21">
          <mxGeometry x="-0.0688" y="-2" relative="1" as="geometry">
            <mxPoint as="offset" />
          </mxGeometry>
        </mxCell>
        <mxCell id="tQLCBiAYzLLkOMKWZQ0E-23" value="" style="endArrow=none;html=1;rounded=0;entryX=0;entryY=0;entryDx=0;entryDy=0;" edge="1" parent="1" target="tQLCBiAYzLLkOMKWZQ0E-13">
          <mxGeometry width="50" height="50" relative="1" as="geometry">
            <mxPoint x="170" y="250" as="sourcePoint" />
            <mxPoint x="382" y="376" as="targetPoint" />
          </mxGeometry>
        </mxCell>
        <mxCell id="tQLCBiAYzLLkOMKWZQ0E-24" value="&amp;lt;&amp;lt;initiate&amp;gt;&amp;gt;" style="edgeLabel;html=1;align=center;verticalAlign=middle;resizable=0;points=[];fontColor=default;" vertex="1" connectable="0" parent="tQLCBiAYzLLkOMKWZQ0E-23">
          <mxGeometry x="-0.0688" y="-2" relative="1" as="geometry">
            <mxPoint as="offset" />
          </mxGeometry>
        </mxCell>
        <mxCell id="tQLCBiAYzLLkOMKWZQ0E-25" value="Edit/Delete profile" style="ellipse;whiteSpace=wrap;html=1;" vertex="1" parent="1">
          <mxGeometry x="360" y="-200" width="80" height="40" as="geometry" />
        </mxCell>
        <mxCell id="tQLCBiAYzLLkOMKWZQ0E-26" value="" style="endArrow=none;html=1;rounded=0;entryX=0.5;entryY=1;entryDx=0;entryDy=0;" edge="1" parent="1" target="tQLCBiAYzLLkOMKWZQ0E-25">
          <mxGeometry width="50" height="50" relative="1" as="geometry">
            <mxPoint x="170" y="170" as="sourcePoint" />
            <mxPoint x="382" y="84" as="targetPoint" />
          </mxGeometry>
        </mxCell>
        <mxCell id="tQLCBiAYzLLkOMKWZQ0E-27" value="&amp;lt;&amp;lt;initiate&amp;gt;&amp;gt;" style="edgeLabel;html=1;align=center;verticalAlign=middle;resizable=0;points=[];fontColor=default;" vertex="1" connectable="0" parent="tQLCBiAYzLLkOMKWZQ0E-26">
          <mxGeometry x="0.2323" y="1" relative="1" as="geometry">
            <mxPoint x="-21" y="8" as="offset" />
          </mxGeometry>
        </mxCell>
        <mxCell id="tQLCBiAYzLLkOMKWZQ0E-28" value="&amp;lt;&amp;lt;include&amp;gt;&amp;gt;" style="endArrow=open;endSize=12;dashed=1;html=1;rounded=0;exitX=1;exitY=0.5;exitDx=0;exitDy=0;entryX=1;entryY=0;entryDx=0;entryDy=0;" edge="1" parent="1" source="tQLCBiAYzLLkOMKWZQ0E-25" target="tQLCBiAYzLLkOMKWZQ0E-3">
          <mxGeometry width="160" relative="1" as="geometry">
            <mxPoint x="450" y="150" as="sourcePoint" />
            <mxPoint x="438" y="84" as="targetPoint" />
            <Array as="points">
              <mxPoint x="520" y="-180" />
              <mxPoint x="520" y="-114" />
            </Array>
          </mxGeometry>
        </mxCell>
        <mxCell id="tQLCBiAYzLLkOMKWZQ0E-29" value="Accept candidation" style="ellipse;whiteSpace=wrap;html=1;" vertex="1" parent="1">
          <mxGeometry x="360" y="520" width="80" height="40" as="geometry" />
        </mxCell>
        <mxCell id="tQLCBiAYzLLkOMKWZQ0E-30" value="" style="endArrow=none;html=1;rounded=0;entryX=0;entryY=0;entryDx=0;entryDy=0;" edge="1" parent="1" target="tQLCBiAYzLLkOMKWZQ0E-29">
          <mxGeometry width="50" height="50" relative="1" as="geometry">
            <mxPoint x="170" y="270" as="sourcePoint" />
            <mxPoint x="372" y="466" as="targetPoint" />
          </mxGeometry>
        </mxCell>
        <mxCell id="tQLCBiAYzLLkOMKWZQ0E-31" value="&amp;lt;&amp;lt;initiate&amp;gt;&amp;gt;" style="edgeLabel;html=1;align=center;verticalAlign=middle;resizable=0;points=[];fontColor=default;" vertex="1" connectable="0" parent="tQLCBiAYzLLkOMKWZQ0E-30">
          <mxGeometry x="-0.0688" y="-2" relative="1" as="geometry">
            <mxPoint as="offset" />
          </mxGeometry>
        </mxCell>
        <mxCell id="tQLCBiAYzLLkOMKWZQ0E-32" value="File a complaint" style="ellipse;whiteSpace=wrap;html=1;" vertex="1" parent="1">
          <mxGeometry x="360" y="600" width="80" height="40" as="geometry" />
        </mxCell>
        <mxCell id="tQLCBiAYzLLkOMKWZQ0E-33" value="" style="endArrow=none;html=1;rounded=0;entryX=0;entryY=0;entryDx=0;entryDy=0;" edge="1" parent="1" target="tQLCBiAYzLLkOMKWZQ0E-32">
          <mxGeometry width="50" height="50" relative="1" as="geometry">
            <mxPoint x="170" y="290" as="sourcePoint" />
            <mxPoint x="352" y="566" as="targetPoint" />
          </mxGeometry>
        </mxCell>
        <mxCell id="tQLCBiAYzLLkOMKWZQ0E-34" value="&amp;lt;&amp;lt;initiate&amp;gt;&amp;gt;" style="edgeLabel;html=1;align=center;verticalAlign=middle;resizable=0;points=[];fontColor=default;" vertex="1" connectable="0" parent="tQLCBiAYzLLkOMKWZQ0E-33">
          <mxGeometry x="-0.0688" y="-2" relative="1" as="geometry">
            <mxPoint as="offset" />
          </mxGeometry>
        </mxCell>
        <mxCell id="tQLCBiAYzLLkOMKWZQ0E-35" value="Submit a feedback" style="ellipse;whiteSpace=wrap;html=1;" vertex="1" parent="1">
          <mxGeometry x="360" y="680" width="80" height="40" as="geometry" />
        </mxCell>
        <mxCell id="tQLCBiAYzLLkOMKWZQ0E-36" value="" style="endArrow=none;html=1;rounded=0;entryX=0;entryY=0;entryDx=0;entryDy=0;" edge="1" parent="1" target="tQLCBiAYzLLkOMKWZQ0E-35">
          <mxGeometry width="50" height="50" relative="1" as="geometry">
            <mxPoint x="170" y="310" as="sourcePoint" />
            <mxPoint x="382" y="616" as="targetPoint" />
          </mxGeometry>
        </mxCell>
        <mxCell id="tQLCBiAYzLLkOMKWZQ0E-37" value="&amp;lt;&amp;lt;initiate&amp;gt;&amp;gt;" style="edgeLabel;html=1;align=center;verticalAlign=middle;resizable=0;points=[];fontColor=default;" vertex="1" connectable="0" parent="tQLCBiAYzLLkOMKWZQ0E-36">
          <mxGeometry x="-0.0688" y="-2" relative="1" as="geometry">
            <mxPoint as="offset" />
          </mxGeometry>
        </mxCell>
        <mxCell id="tQLCBiAYzLLkOMKWZQ0E-39" value="&amp;lt;&amp;lt;include&amp;gt;&amp;gt;" style="endArrow=open;endSize=12;dashed=1;html=1;rounded=0;exitX=1;exitY=0.5;exitDx=0;exitDy=0;entryX=1;entryY=0.5;entryDx=0;entryDy=0;" edge="1" parent="1" source="tQLCBiAYzLLkOMKWZQ0E-29" target="tQLCBiAYzLLkOMKWZQ0E-3">
          <mxGeometry width="160" relative="1" as="geometry">
            <mxPoint x="450" y="470" as="sourcePoint" />
            <mxPoint x="440" y="60" as="targetPoint" />
            <Array as="points">
              <mxPoint x="640" y="540" />
              <mxPoint x="640" y="-100" />
            </Array>
          </mxGeometry>
        </mxCell>
        <mxCell id="tQLCBiAYzLLkOMKWZQ0E-40" value="&amp;lt;&amp;lt;include&amp;gt;&amp;gt;" style="endArrow=open;endSize=12;dashed=1;html=1;rounded=0;exitX=1;exitY=0.5;exitDx=0;exitDy=0;entryX=1;entryY=0.5;entryDx=0;entryDy=0;" edge="1" parent="1" source="tQLCBiAYzLLkOMKWZQ0E-32" target="tQLCBiAYzLLkOMKWZQ0E-3">
          <mxGeometry width="160" relative="1" as="geometry">
            <mxPoint x="450" y="550" as="sourcePoint" />
            <mxPoint x="440" y="60" as="targetPoint" />
            <Array as="points">
              <mxPoint x="680" y="620" />
              <mxPoint x="680" y="-100" />
            </Array>
          </mxGeometry>
        </mxCell>
        <mxCell id="tQLCBiAYzLLkOMKWZQ0E-41" value="&amp;lt;&amp;lt;include&amp;gt;&amp;gt;" style="endArrow=open;endSize=12;dashed=1;html=1;rounded=0;exitX=1;exitY=0.5;exitDx=0;exitDy=0;entryX=1;entryY=0.5;entryDx=0;entryDy=0;" edge="1" parent="1" source="tQLCBiAYzLLkOMKWZQ0E-35" target="tQLCBiAYzLLkOMKWZQ0E-3">
          <mxGeometry width="160" relative="1" as="geometry">
            <mxPoint x="460" y="560" as="sourcePoint" />
            <mxPoint x="440" y="60" as="targetPoint" />
            <Array as="points">
              <mxPoint x="720" y="700" />
              <mxPoint x="720" y="-100" />
            </Array>
          </mxGeometry>
        </mxCell>
        <mxCell id="tQLCBiAYzLLkOMKWZQ0E-42" value="S&amp;amp;C" style="text;html=1;align=center;verticalAlign=middle;whiteSpace=wrap;rounded=0;fontSize=25;" vertex="1" parent="1">
          <mxGeometry x="515" y="-260" width="60" height="30" as="geometry" />
        </mxCell>
        <mxCell id="tQLCBiAYzLLkOMKWZQ0E-43" value="&amp;lt;&amp;lt;include&amp;gt;&amp;gt;" style="endArrow=open;endSize=12;dashed=1;html=1;rounded=0;exitX=1;exitY=0.5;exitDx=0;exitDy=0;entryX=1;entryY=0.5;entryDx=0;entryDy=0;" edge="1" parent="1" source="tQLCBiAYzLLkOMKWZQ0E-13" target="tQLCBiAYzLLkOMKWZQ0E-9">
          <mxGeometry width="160" relative="1" as="geometry">
            <mxPoint x="454" y="392" as="sourcePoint" />
            <mxPoint x="438" y="324" as="targetPoint" />
            <Array as="points">
              <mxPoint x="520" y="460" />
              <mxPoint x="520" y="300" />
            </Array>
          </mxGeometry>
        </mxCell>
        <mxCell id="tQLCBiAYzLLkOMKWZQ0E-44" value="Post an internship offer" style="ellipse;whiteSpace=wrap;html=1;" vertex="1" parent="1">
          <mxGeometry x="360" y="30" width="80" height="60" as="geometry" />
        </mxCell>
        <mxCell id="tQLCBiAYzLLkOMKWZQ0E-45" value="" style="endArrow=none;html=1;rounded=0;entryX=0;entryY=0.5;entryDx=0;entryDy=0;" edge="1" parent="1" target="tQLCBiAYzLLkOMKWZQ0E-44">
          <mxGeometry width="50" height="50" relative="1" as="geometry">
            <mxPoint x="170" y="200" as="sourcePoint" />
            <mxPoint x="370" y="70" as="targetPoint" />
          </mxGeometry>
        </mxCell>
        <mxCell id="tQLCBiAYzLLkOMKWZQ0E-46" value="&amp;lt;&amp;lt;initiate&amp;gt;&amp;gt;" style="edgeLabel;html=1;align=center;verticalAlign=middle;resizable=0;points=[];fontColor=default;" vertex="1" connectable="0" parent="tQLCBiAYzLLkOMKWZQ0E-45">
          <mxGeometry x="0.0775" relative="1" as="geometry">
            <mxPoint as="offset" />
          </mxGeometry>
        </mxCell>
        <mxCell id="tQLCBiAYzLLkOMKWZQ0E-47" value="&amp;lt;&amp;lt;include&amp;gt;&amp;gt;" style="endArrow=open;endSize=12;dashed=1;html=1;rounded=0;exitX=1;exitY=0.5;exitDx=0;exitDy=0;entryX=1;entryY=0.5;entryDx=0;entryDy=0;" edge="1" parent="1" source="tQLCBiAYzLLkOMKWZQ0E-44" target="tQLCBiAYzLLkOMKWZQ0E-3">
          <mxGeometry width="160" relative="1" as="geometry">
            <mxPoint x="450" y="230" as="sourcePoint" />
            <mxPoint x="450" y="-10" as="targetPoint" />
            <Array as="points">
              <mxPoint x="520" y="60" />
              <mxPoint x="520" y="-100" />
            </Array>
          </mxGeometry>
        </mxCell>
        <mxCell id="tQLCBiAYzLLkOMKWZQ0E-48" value="Edit/remove offer" style="ellipse;whiteSpace=wrap;html=1;" vertex="1" parent="1">
          <mxGeometry x="360" y="110" width="80" height="60" as="geometry" />
        </mxCell>
        <mxCell id="tQLCBiAYzLLkOMKWZQ0E-49" value="" style="endArrow=none;html=1;rounded=0;entryX=0;entryY=0.5;entryDx=0;entryDy=0;" edge="1" parent="1" target="tQLCBiAYzLLkOMKWZQ0E-48">
          <mxGeometry width="50" height="50" relative="1" as="geometry">
            <mxPoint x="170" y="210" as="sourcePoint" />
            <mxPoint x="370" y="70" as="targetPoint" />
          </mxGeometry>
        </mxCell>
        <mxCell id="tQLCBiAYzLLkOMKWZQ0E-50" value="&amp;lt;&amp;lt;initiate&amp;gt;&amp;gt;" style="edgeLabel;html=1;align=center;verticalAlign=middle;resizable=0;points=[];fontColor=default;" vertex="1" connectable="0" parent="tQLCBiAYzLLkOMKWZQ0E-49">
          <mxGeometry x="0.0775" relative="1" as="geometry">
            <mxPoint as="offset" />
          </mxGeometry>
        </mxCell>
        <mxCell id="tQLCBiAYzLLkOMKWZQ0E-51" value="&amp;lt;&amp;lt;include&amp;gt;&amp;gt;" style="endArrow=open;endSize=12;dashed=1;html=1;rounded=0;exitX=1;exitY=0.5;exitDx=0;exitDy=0;entryX=1;entryY=0.5;entryDx=0;entryDy=0;" edge="1" parent="1" source="tQLCBiAYzLLkOMKWZQ0E-48" target="tQLCBiAYzLLkOMKWZQ0E-3">
          <mxGeometry width="160" relative="1" as="geometry">
            <mxPoint x="450" y="70" as="sourcePoint" />
            <mxPoint x="450" y="-90" as="targetPoint" />
            <Array as="points">
              <mxPoint x="560" y="140" />
              <mxPoint x="560" y="-100" />
            </Array>
          </mxGeometry>
        </mxCell>
      </root>
    </mxGraphModel>
  </diagram>
</mxfile>
